<mxfile host="app.diagrams.net" agent="Mozilla/5.0 (X11; Linux x86_64; rv:132.0) Gecko/20100101 Firefox/132.0" version="25.0.1" pages="2">
  <diagram name="Page-1" id="T8_Pfgg00Lvm1iwahL-D">
    <mxGraphModel dx="775" dy="411" grid="1" gridSize="10" guides="1" tooltips="1" connect="1" arrows="1" fold="1" page="1" pageScale="1" pageWidth="850" pageHeight="1100" background="none" math="0" shadow="0">
      <root>
        <mxCell id="0" />
        <mxCell id="1" parent="0" />
        <mxCell id="tSI1OExWCYNJTG6CYfal-12" style="rounded=0;orthogonalLoop=1;jettySize=auto;html=1;endArrow=none;endFill=0;" edge="1" parent="1" source="qssM28EAout3t3XQj-o4-28" target="tSI1OExWCYNJTG6CYfal-1">
          <mxGeometry relative="1" as="geometry" />
        </mxCell>
        <mxCell id="tSI1OExWCYNJTG6CYfal-13" style="rounded=0;orthogonalLoop=1;jettySize=auto;html=1;entryX=0;entryY=0;entryDx=0;entryDy=0;endArrow=none;endFill=0;" edge="1" parent="1" source="qssM28EAout3t3XQj-o4-28" target="tSI1OExWCYNJTG6CYfal-2">
          <mxGeometry relative="1" as="geometry" />
        </mxCell>
        <mxCell id="qssM28EAout3t3XQj-o4-28" value="1" style="ellipse;whiteSpace=wrap;html=1;aspect=fixed;labelBackgroundColor=none;rounded=0;" parent="1" vertex="1">
          <mxGeometry x="330" y="240" width="30" height="30" as="geometry" />
        </mxCell>
        <mxCell id="tSI1OExWCYNJTG6CYfal-14" style="rounded=0;orthogonalLoop=1;jettySize=auto;html=1;endArrow=none;endFill=0;" edge="1" parent="1" source="tSI1OExWCYNJTG6CYfal-1" target="tSI1OExWCYNJTG6CYfal-3">
          <mxGeometry relative="1" as="geometry" />
        </mxCell>
        <mxCell id="tSI1OExWCYNJTG6CYfal-1" value="3" style="ellipse;whiteSpace=wrap;html=1;aspect=fixed;labelBackgroundColor=none;rounded=0;" vertex="1" parent="1">
          <mxGeometry x="300" y="280" width="30" height="30" as="geometry" />
        </mxCell>
        <mxCell id="tSI1OExWCYNJTG6CYfal-16" style="rounded=0;orthogonalLoop=1;jettySize=auto;html=1;endArrow=none;endFill=0;" edge="1" parent="1" source="tSI1OExWCYNJTG6CYfal-2" target="tSI1OExWCYNJTG6CYfal-5">
          <mxGeometry relative="1" as="geometry" />
        </mxCell>
        <mxCell id="tSI1OExWCYNJTG6CYfal-17" style="rounded=0;orthogonalLoop=1;jettySize=auto;html=1;endArrow=none;endFill=0;" edge="1" parent="1" source="tSI1OExWCYNJTG6CYfal-2" target="tSI1OExWCYNJTG6CYfal-4">
          <mxGeometry relative="1" as="geometry" />
        </mxCell>
        <mxCell id="tSI1OExWCYNJTG6CYfal-2" value="1" style="ellipse;whiteSpace=wrap;html=1;aspect=fixed;labelBackgroundColor=none;rounded=0;" vertex="1" parent="1">
          <mxGeometry x="360" y="280" width="30" height="30" as="geometry" />
        </mxCell>
        <mxCell id="tSI1OExWCYNJTG6CYfal-3" value="0" style="ellipse;whiteSpace=wrap;html=1;aspect=fixed;labelBackgroundColor=none;rounded=0;" vertex="1" parent="1">
          <mxGeometry x="270" y="320" width="30" height="30" as="geometry" />
        </mxCell>
        <mxCell id="tSI1OExWCYNJTG6CYfal-18" style="rounded=0;orthogonalLoop=1;jettySize=auto;html=1;endArrow=none;endFill=0;" edge="1" parent="1" source="tSI1OExWCYNJTG6CYfal-4" target="tSI1OExWCYNJTG6CYfal-7">
          <mxGeometry relative="1" as="geometry" />
        </mxCell>
        <mxCell id="tSI1OExWCYNJTG6CYfal-4" value="2" style="ellipse;whiteSpace=wrap;html=1;aspect=fixed;labelBackgroundColor=none;rounded=0;" vertex="1" parent="1">
          <mxGeometry x="330" y="320" width="30" height="30" as="geometry" />
        </mxCell>
        <mxCell id="tSI1OExWCYNJTG6CYfal-5" value="1" style="ellipse;whiteSpace=wrap;html=1;aspect=fixed;labelBackgroundColor=none;rounded=0;" vertex="1" parent="1">
          <mxGeometry x="390" y="320" width="30" height="30" as="geometry" />
        </mxCell>
        <mxCell id="tSI1OExWCYNJTG6CYfal-7" value="0" style="ellipse;whiteSpace=wrap;html=1;aspect=fixed;labelBackgroundColor=none;rounded=0;" vertex="1" parent="1">
          <mxGeometry x="360" y="360" width="30" height="30" as="geometry" />
        </mxCell>
        <mxCell id="tSI1OExWCYNJTG6CYfal-36" value="0" style="text;html=1;align=center;verticalAlign=middle;resizable=0;points=[];autosize=1;strokeColor=none;fillColor=none;fontSize=10;" vertex="1" parent="1">
          <mxGeometry x="346" y="226" width="30" height="30" as="geometry" />
        </mxCell>
        <mxCell id="tSI1OExWCYNJTG6CYfal-37" value="1" style="text;html=1;align=center;verticalAlign=middle;resizable=0;points=[];autosize=1;strokeColor=none;fillColor=none;fontSize=10;" vertex="1" parent="1">
          <mxGeometry x="318" y="267" width="30" height="30" as="geometry" />
        </mxCell>
        <mxCell id="tSI1OExWCYNJTG6CYfal-39" value="2" style="text;html=1;align=center;verticalAlign=middle;resizable=0;points=[];autosize=1;strokeColor=none;fillColor=none;fontSize=10;" vertex="1" parent="1">
          <mxGeometry x="377" y="268" width="30" height="30" as="geometry" />
        </mxCell>
        <mxCell id="tSI1OExWCYNJTG6CYfal-40" value="3" style="text;html=1;align=center;verticalAlign=middle;resizable=0;points=[];autosize=1;strokeColor=none;fillColor=none;fontSize=10;" vertex="1" parent="1">
          <mxGeometry x="287" y="308" width="30" height="30" as="geometry" />
        </mxCell>
        <mxCell id="tSI1OExWCYNJTG6CYfal-41" value="4" style="text;html=1;align=center;verticalAlign=middle;resizable=0;points=[];autosize=1;strokeColor=none;fillColor=none;fontSize=10;" vertex="1" parent="1">
          <mxGeometry x="348" y="308" width="30" height="30" as="geometry" />
        </mxCell>
        <mxCell id="tSI1OExWCYNJTG6CYfal-42" value="5" style="text;html=1;align=center;verticalAlign=middle;resizable=0;points=[];autosize=1;strokeColor=none;fillColor=none;fontSize=10;" vertex="1" parent="1">
          <mxGeometry x="409" y="309" width="30" height="30" as="geometry" />
        </mxCell>
        <mxCell id="tSI1OExWCYNJTG6CYfal-43" value="6" style="text;html=1;align=center;verticalAlign=middle;resizable=0;points=[];autosize=1;strokeColor=none;fillColor=none;fontSize=10;rounded=0;shadow=0;" vertex="1" parent="1">
          <mxGeometry x="376" y="346" width="30" height="30" as="geometry" />
        </mxCell>
      </root>
    </mxGraphModel>
  </diagram>
  <diagram id="nbVSw8PWc0BE0vwL3od8" name="Page-2">
    <mxGraphModel dx="1434" dy="761" grid="1" gridSize="10" guides="1" tooltips="1" connect="1" arrows="1" fold="1" page="1" pageScale="1" pageWidth="850" pageHeight="1100" math="0" shadow="0">
      <root>
        <mxCell id="0" />
        <mxCell id="1" parent="0" />
        <mxCell id="38KEakOC2xByXQMo1wlP-1" style="edgeStyle=orthogonalEdgeStyle;rounded=0;orthogonalLoop=1;jettySize=auto;html=1;exitX=0.5;exitY=1;exitDx=0;exitDy=0;entryX=0.5;entryY=0;entryDx=0;entryDy=0;endArrow=none;endFill=0;labelBackgroundColor=none;fontColor=default;" edge="1" parent="1" source="38KEakOC2xByXQMo1wlP-3" target="38KEakOC2xByXQMo1wlP-8">
          <mxGeometry relative="1" as="geometry" />
        </mxCell>
        <mxCell id="38KEakOC2xByXQMo1wlP-2" style="edgeStyle=orthogonalEdgeStyle;rounded=0;orthogonalLoop=1;jettySize=auto;html=1;exitX=1;exitY=0.5;exitDx=0;exitDy=0;entryX=0;entryY=0.5;entryDx=0;entryDy=0;endArrow=none;endFill=0;labelBackgroundColor=none;fontColor=default;" edge="1" parent="1" source="38KEakOC2xByXQMo1wlP-3" target="38KEakOC2xByXQMo1wlP-6">
          <mxGeometry relative="1" as="geometry" />
        </mxCell>
        <mxCell id="38KEakOC2xByXQMo1wlP-3" value="" style="ellipse;whiteSpace=wrap;html=1;aspect=fixed;labelBackgroundColor=none;rounded=0;" vertex="1" parent="1">
          <mxGeometry x="90" y="200" width="30" height="30" as="geometry" />
        </mxCell>
        <mxCell id="38KEakOC2xByXQMo1wlP-4" style="edgeStyle=orthogonalEdgeStyle;rounded=0;orthogonalLoop=1;jettySize=auto;html=1;exitX=0.5;exitY=1;exitDx=0;exitDy=0;entryX=0.5;entryY=0;entryDx=0;entryDy=0;endArrow=none;endFill=0;labelBackgroundColor=none;fontColor=default;startArrow=none;startFill=0;" edge="1" parent="1" source="38KEakOC2xByXQMo1wlP-6" target="38KEakOC2xByXQMo1wlP-10">
          <mxGeometry relative="1" as="geometry" />
        </mxCell>
        <mxCell id="38KEakOC2xByXQMo1wlP-5" style="edgeStyle=orthogonalEdgeStyle;rounded=0;orthogonalLoop=1;jettySize=auto;html=1;exitX=1;exitY=0.5;exitDx=0;exitDy=0;entryX=0;entryY=0.5;entryDx=0;entryDy=0;labelBackgroundColor=none;fontColor=default;endArrow=none;endFill=0;" edge="1" parent="1" source="38KEakOC2xByXQMo1wlP-6" target="38KEakOC2xByXQMo1wlP-13">
          <mxGeometry relative="1" as="geometry" />
        </mxCell>
        <mxCell id="38KEakOC2xByXQMo1wlP-6" value="" style="ellipse;whiteSpace=wrap;html=1;aspect=fixed;labelBackgroundColor=none;rounded=0;" vertex="1" parent="1">
          <mxGeometry x="130" y="200" width="30" height="30" as="geometry" />
        </mxCell>
        <mxCell id="38KEakOC2xByXQMo1wlP-7" style="edgeStyle=orthogonalEdgeStyle;rounded=0;orthogonalLoop=1;jettySize=auto;html=1;exitX=1;exitY=0.5;exitDx=0;exitDy=0;entryX=0;entryY=0.5;entryDx=0;entryDy=0;endArrow=none;endFill=0;labelBackgroundColor=none;fontColor=default;" edge="1" parent="1" source="38KEakOC2xByXQMo1wlP-8" target="38KEakOC2xByXQMo1wlP-10">
          <mxGeometry relative="1" as="geometry" />
        </mxCell>
        <mxCell id="38KEakOC2xByXQMo1wlP-8" value="" style="ellipse;whiteSpace=wrap;html=1;aspect=fixed;labelBackgroundColor=none;rounded=0;" vertex="1" parent="1">
          <mxGeometry x="90" y="240" width="30" height="30" as="geometry" />
        </mxCell>
        <mxCell id="38KEakOC2xByXQMo1wlP-9" style="edgeStyle=orthogonalEdgeStyle;rounded=0;orthogonalLoop=1;jettySize=auto;html=1;exitX=1;exitY=0.5;exitDx=0;exitDy=0;entryX=0;entryY=0.5;entryDx=0;entryDy=0;labelBackgroundColor=none;fontColor=default;endArrow=none;endFill=0;" edge="1" parent="1" source="38KEakOC2xByXQMo1wlP-10" target="38KEakOC2xByXQMo1wlP-19">
          <mxGeometry relative="1" as="geometry" />
        </mxCell>
        <mxCell id="38KEakOC2xByXQMo1wlP-10" value="" style="ellipse;whiteSpace=wrap;html=1;aspect=fixed;labelBackgroundColor=none;rounded=0;" vertex="1" parent="1">
          <mxGeometry x="130" y="240" width="30" height="30" as="geometry" />
        </mxCell>
        <mxCell id="38KEakOC2xByXQMo1wlP-11" style="edgeStyle=orthogonalEdgeStyle;rounded=0;orthogonalLoop=1;jettySize=auto;html=1;exitX=1;exitY=0.5;exitDx=0;exitDy=0;entryX=0;entryY=0.5;entryDx=0;entryDy=0;labelBackgroundColor=none;fontColor=default;endArrow=none;endFill=0;" edge="1" parent="1" source="38KEakOC2xByXQMo1wlP-13" target="38KEakOC2xByXQMo1wlP-16">
          <mxGeometry relative="1" as="geometry" />
        </mxCell>
        <mxCell id="38KEakOC2xByXQMo1wlP-12" style="edgeStyle=orthogonalEdgeStyle;rounded=0;orthogonalLoop=1;jettySize=auto;html=1;exitX=0.5;exitY=1;exitDx=0;exitDy=0;entryX=0.5;entryY=0;entryDx=0;entryDy=0;labelBackgroundColor=none;fontColor=default;startArrow=none;startFill=0;endArrow=none;endFill=0;" edge="1" parent="1" source="38KEakOC2xByXQMo1wlP-13" target="38KEakOC2xByXQMo1wlP-19">
          <mxGeometry relative="1" as="geometry" />
        </mxCell>
        <mxCell id="38KEakOC2xByXQMo1wlP-13" value="" style="ellipse;whiteSpace=wrap;html=1;aspect=fixed;labelBackgroundColor=none;rounded=0;" vertex="1" parent="1">
          <mxGeometry x="170" y="200" width="30" height="30" as="geometry" />
        </mxCell>
        <mxCell id="38KEakOC2xByXQMo1wlP-14" style="edgeStyle=orthogonalEdgeStyle;rounded=0;orthogonalLoop=1;jettySize=auto;html=1;exitX=1;exitY=0.5;exitDx=0;exitDy=0;entryX=0;entryY=0.5;entryDx=0;entryDy=0;labelBackgroundColor=none;fontColor=default;endArrow=none;endFill=0;" edge="1" parent="1" source="38KEakOC2xByXQMo1wlP-16" target="38KEakOC2xByXQMo1wlP-49">
          <mxGeometry relative="1" as="geometry" />
        </mxCell>
        <mxCell id="38KEakOC2xByXQMo1wlP-15" style="edgeStyle=orthogonalEdgeStyle;rounded=0;orthogonalLoop=1;jettySize=auto;html=1;exitX=0.5;exitY=1;exitDx=0;exitDy=0;entryX=0.5;entryY=0;entryDx=0;entryDy=0;labelBackgroundColor=none;fontColor=default;startArrow=none;startFill=0;endArrow=none;endFill=0;" edge="1" parent="1" source="38KEakOC2xByXQMo1wlP-16" target="38KEakOC2xByXQMo1wlP-21">
          <mxGeometry relative="1" as="geometry" />
        </mxCell>
        <mxCell id="38KEakOC2xByXQMo1wlP-16" value="" style="ellipse;whiteSpace=wrap;html=1;aspect=fixed;labelBackgroundColor=none;rounded=0;" vertex="1" parent="1">
          <mxGeometry x="210" y="200" width="30" height="30" as="geometry" />
        </mxCell>
        <mxCell id="38KEakOC2xByXQMo1wlP-17" style="edgeStyle=orthogonalEdgeStyle;rounded=0;orthogonalLoop=1;jettySize=auto;html=1;exitX=1;exitY=0.5;exitDx=0;exitDy=0;entryX=0;entryY=0.5;entryDx=0;entryDy=0;labelBackgroundColor=none;fontColor=default;endArrow=none;endFill=0;" edge="1" parent="1" source="38KEakOC2xByXQMo1wlP-19" target="38KEakOC2xByXQMo1wlP-21">
          <mxGeometry relative="1" as="geometry" />
        </mxCell>
        <mxCell id="38KEakOC2xByXQMo1wlP-18" style="edgeStyle=orthogonalEdgeStyle;rounded=0;orthogonalLoop=1;jettySize=auto;html=1;exitX=0.5;exitY=1;exitDx=0;exitDy=0;entryX=0.5;entryY=0;entryDx=0;entryDy=0;labelBackgroundColor=none;fontColor=default;startArrow=none;startFill=0;endArrow=none;endFill=0;" edge="1" parent="1" source="38KEakOC2xByXQMo1wlP-19" target="38KEakOC2xByXQMo1wlP-35">
          <mxGeometry relative="1" as="geometry" />
        </mxCell>
        <mxCell id="38KEakOC2xByXQMo1wlP-19" value="" style="ellipse;whiteSpace=wrap;html=1;aspect=fixed;labelBackgroundColor=none;rounded=0;" vertex="1" parent="1">
          <mxGeometry x="170" y="240" width="30" height="30" as="geometry" />
        </mxCell>
        <mxCell id="38KEakOC2xByXQMo1wlP-20" style="edgeStyle=orthogonalEdgeStyle;rounded=0;orthogonalLoop=1;jettySize=auto;html=1;exitX=1;exitY=0.5;exitDx=0;exitDy=0;entryX=0;entryY=0.5;entryDx=0;entryDy=0;labelBackgroundColor=none;fontColor=default;endArrow=none;endFill=0;" edge="1" parent="1" source="38KEakOC2xByXQMo1wlP-21" target="38KEakOC2xByXQMo1wlP-55">
          <mxGeometry relative="1" as="geometry" />
        </mxCell>
        <mxCell id="38KEakOC2xByXQMo1wlP-21" value="" style="ellipse;whiteSpace=wrap;html=1;aspect=fixed;labelBackgroundColor=none;rounded=0;" vertex="1" parent="1">
          <mxGeometry x="210" y="240" width="30" height="30" as="geometry" />
        </mxCell>
        <mxCell id="38KEakOC2xByXQMo1wlP-22" style="edgeStyle=orthogonalEdgeStyle;rounded=0;orthogonalLoop=1;jettySize=auto;html=1;exitX=0.5;exitY=0;exitDx=0;exitDy=0;entryX=0.5;entryY=1;entryDx=0;entryDy=0;labelBackgroundColor=none;fontColor=default;startArrow=none;startFill=0;endArrow=none;endFill=0;" edge="1" parent="1" source="38KEakOC2xByXQMo1wlP-24" target="38KEakOC2xByXQMo1wlP-8">
          <mxGeometry relative="1" as="geometry" />
        </mxCell>
        <mxCell id="38KEakOC2xByXQMo1wlP-23" style="edgeStyle=orthogonalEdgeStyle;rounded=0;orthogonalLoop=1;jettySize=auto;html=1;exitX=1;exitY=0.5;exitDx=0;exitDy=0;entryX=0;entryY=0.5;entryDx=0;entryDy=0;labelBackgroundColor=none;fontColor=default;startArrow=none;startFill=0;endArrow=none;endFill=0;" edge="1" parent="1" source="38KEakOC2xByXQMo1wlP-24" target="38KEakOC2xByXQMo1wlP-28">
          <mxGeometry relative="1" as="geometry" />
        </mxCell>
        <mxCell id="38KEakOC2xByXQMo1wlP-24" value="" style="ellipse;whiteSpace=wrap;html=1;aspect=fixed;labelBackgroundColor=none;rounded=0;" vertex="1" parent="1">
          <mxGeometry x="90" y="280" width="30" height="30" as="geometry" />
        </mxCell>
        <mxCell id="38KEakOC2xByXQMo1wlP-25" style="edgeStyle=orthogonalEdgeStyle;rounded=0;orthogonalLoop=1;jettySize=auto;html=1;exitX=0.5;exitY=1;exitDx=0;exitDy=0;entryX=0.5;entryY=0;entryDx=0;entryDy=0;labelBackgroundColor=none;fontColor=default;startArrow=none;startFill=0;endArrow=none;endFill=0;" edge="1" parent="1" source="38KEakOC2xByXQMo1wlP-28" target="38KEakOC2xByXQMo1wlP-33">
          <mxGeometry relative="1" as="geometry" />
        </mxCell>
        <mxCell id="38KEakOC2xByXQMo1wlP-26" style="edgeStyle=orthogonalEdgeStyle;rounded=0;orthogonalLoop=1;jettySize=auto;html=1;exitX=0.5;exitY=0;exitDx=0;exitDy=0;entryX=0.5;entryY=1;entryDx=0;entryDy=0;labelBackgroundColor=none;fontColor=default;startArrow=none;startFill=0;endArrow=none;endFill=0;" edge="1" parent="1" source="38KEakOC2xByXQMo1wlP-28" target="38KEakOC2xByXQMo1wlP-10">
          <mxGeometry relative="1" as="geometry" />
        </mxCell>
        <mxCell id="38KEakOC2xByXQMo1wlP-27" style="edgeStyle=orthogonalEdgeStyle;rounded=0;orthogonalLoop=1;jettySize=auto;html=1;exitX=1;exitY=0.5;exitDx=0;exitDy=0;entryX=0;entryY=0.5;entryDx=0;entryDy=0;labelBackgroundColor=none;fontColor=default;endArrow=none;endFill=0;" edge="1" parent="1" source="38KEakOC2xByXQMo1wlP-28" target="38KEakOC2xByXQMo1wlP-35">
          <mxGeometry relative="1" as="geometry" />
        </mxCell>
        <mxCell id="38KEakOC2xByXQMo1wlP-28" value="" style="ellipse;whiteSpace=wrap;html=1;aspect=fixed;labelBackgroundColor=none;rounded=0;" vertex="1" parent="1">
          <mxGeometry x="130" y="280" width="30" height="30" as="geometry" />
        </mxCell>
        <mxCell id="38KEakOC2xByXQMo1wlP-29" style="edgeStyle=orthogonalEdgeStyle;rounded=0;orthogonalLoop=1;jettySize=auto;html=1;exitX=0.5;exitY=0;exitDx=0;exitDy=0;entryX=0.5;entryY=1;entryDx=0;entryDy=0;labelBackgroundColor=none;fontColor=default;startArrow=none;startFill=0;endArrow=none;endFill=0;" edge="1" parent="1" source="38KEakOC2xByXQMo1wlP-31" target="38KEakOC2xByXQMo1wlP-24">
          <mxGeometry relative="1" as="geometry" />
        </mxCell>
        <mxCell id="38KEakOC2xByXQMo1wlP-30" style="edgeStyle=orthogonalEdgeStyle;rounded=0;orthogonalLoop=1;jettySize=auto;html=1;exitX=0.5;exitY=1;exitDx=0;exitDy=0;entryX=0.5;entryY=0;entryDx=0;entryDy=0;labelBackgroundColor=none;fontColor=default;startArrow=none;startFill=0;endArrow=none;endFill=0;" edge="1" parent="1" source="38KEakOC2xByXQMo1wlP-31" target="38KEakOC2xByXQMo1wlP-89">
          <mxGeometry relative="1" as="geometry" />
        </mxCell>
        <mxCell id="38KEakOC2xByXQMo1wlP-31" value="" style="ellipse;whiteSpace=wrap;html=1;aspect=fixed;labelBackgroundColor=none;rounded=0;" vertex="1" parent="1">
          <mxGeometry x="90" y="320" width="30" height="30" as="geometry" />
        </mxCell>
        <mxCell id="38KEakOC2xByXQMo1wlP-32" style="edgeStyle=orthogonalEdgeStyle;rounded=0;orthogonalLoop=1;jettySize=auto;html=1;exitX=0;exitY=0.5;exitDx=0;exitDy=0;entryX=1;entryY=0.5;entryDx=0;entryDy=0;labelBackgroundColor=none;fontColor=default;startArrow=none;startFill=0;endArrow=none;endFill=0;" edge="1" parent="1" source="38KEakOC2xByXQMo1wlP-33" target="38KEakOC2xByXQMo1wlP-31">
          <mxGeometry relative="1" as="geometry" />
        </mxCell>
        <mxCell id="38KEakOC2xByXQMo1wlP-33" value="" style="ellipse;whiteSpace=wrap;html=1;aspect=fixed;labelBackgroundColor=none;rounded=0;" vertex="1" parent="1">
          <mxGeometry x="130" y="320" width="30" height="30" as="geometry" />
        </mxCell>
        <mxCell id="38KEakOC2xByXQMo1wlP-34" style="edgeStyle=orthogonalEdgeStyle;rounded=0;orthogonalLoop=1;jettySize=auto;html=1;exitX=1;exitY=0.5;exitDx=0;exitDy=0;entryX=0;entryY=0.5;entryDx=0;entryDy=0;labelBackgroundColor=none;fontColor=default;endArrow=none;endFill=0;" edge="1" parent="1" source="38KEakOC2xByXQMo1wlP-35" target="38KEakOC2xByXQMo1wlP-38">
          <mxGeometry relative="1" as="geometry" />
        </mxCell>
        <mxCell id="38KEakOC2xByXQMo1wlP-35" value="F" style="ellipse;whiteSpace=wrap;html=1;aspect=fixed;labelBackgroundColor=none;rounded=0;" vertex="1" parent="1">
          <mxGeometry x="170" y="280" width="30" height="30" as="geometry" />
        </mxCell>
        <mxCell id="38KEakOC2xByXQMo1wlP-36" style="edgeStyle=orthogonalEdgeStyle;rounded=0;orthogonalLoop=1;jettySize=auto;html=1;exitX=0.5;exitY=0;exitDx=0;exitDy=0;entryX=0.5;entryY=1;entryDx=0;entryDy=0;labelBackgroundColor=none;fontColor=default;startArrow=none;startFill=0;endArrow=none;endFill=0;" edge="1" parent="1" source="38KEakOC2xByXQMo1wlP-38" target="38KEakOC2xByXQMo1wlP-21">
          <mxGeometry relative="1" as="geometry" />
        </mxCell>
        <mxCell id="38KEakOC2xByXQMo1wlP-37" style="edgeStyle=orthogonalEdgeStyle;rounded=0;orthogonalLoop=1;jettySize=auto;html=1;exitX=1;exitY=0.5;exitDx=0;exitDy=0;entryX=0;entryY=0.5;entryDx=0;entryDy=0;labelBackgroundColor=none;fontColor=default;endArrow=none;endFill=0;" edge="1" parent="1" source="38KEakOC2xByXQMo1wlP-38" target="38KEakOC2xByXQMo1wlP-68">
          <mxGeometry relative="1" as="geometry" />
        </mxCell>
        <mxCell id="38KEakOC2xByXQMo1wlP-38" value="F" style="ellipse;whiteSpace=wrap;html=1;aspect=fixed;labelBackgroundColor=none;rounded=0;" vertex="1" parent="1">
          <mxGeometry x="210" y="280" width="30" height="30" as="geometry" />
        </mxCell>
        <mxCell id="38KEakOC2xByXQMo1wlP-39" style="edgeStyle=orthogonalEdgeStyle;rounded=0;orthogonalLoop=1;jettySize=auto;html=1;exitX=0.5;exitY=0;exitDx=0;exitDy=0;entryX=0.5;entryY=1;entryDx=0;entryDy=0;labelBackgroundColor=none;fontColor=default;startArrow=none;startFill=0;endArrow=none;endFill=0;" edge="1" parent="1" source="38KEakOC2xByXQMo1wlP-41" target="38KEakOC2xByXQMo1wlP-35">
          <mxGeometry relative="1" as="geometry" />
        </mxCell>
        <mxCell id="38KEakOC2xByXQMo1wlP-40" style="edgeStyle=orthogonalEdgeStyle;rounded=0;orthogonalLoop=1;jettySize=auto;html=1;exitX=0;exitY=0.5;exitDx=0;exitDy=0;entryX=1;entryY=0.5;entryDx=0;entryDy=0;labelBackgroundColor=none;fontColor=default;endArrow=none;endFill=0;" edge="1" parent="1" source="38KEakOC2xByXQMo1wlP-41" target="38KEakOC2xByXQMo1wlP-33">
          <mxGeometry relative="1" as="geometry" />
        </mxCell>
        <mxCell id="38KEakOC2xByXQMo1wlP-41" value="" style="ellipse;whiteSpace=wrap;html=1;aspect=fixed;labelBackgroundColor=none;rounded=0;" vertex="1" parent="1">
          <mxGeometry x="170" y="320" width="30" height="30" as="geometry" />
        </mxCell>
        <mxCell id="38KEakOC2xByXQMo1wlP-42" style="edgeStyle=orthogonalEdgeStyle;rounded=0;orthogonalLoop=1;jettySize=auto;html=1;exitX=0.5;exitY=0;exitDx=0;exitDy=0;entryX=0.5;entryY=1;entryDx=0;entryDy=0;labelBackgroundColor=none;fontColor=default;startArrow=none;startFill=0;endArrow=none;endFill=0;" edge="1" parent="1" source="38KEakOC2xByXQMo1wlP-46" target="38KEakOC2xByXQMo1wlP-38">
          <mxGeometry relative="1" as="geometry" />
        </mxCell>
        <mxCell id="38KEakOC2xByXQMo1wlP-43" style="edgeStyle=orthogonalEdgeStyle;rounded=0;orthogonalLoop=1;jettySize=auto;html=1;exitX=1;exitY=0.5;exitDx=0;exitDy=0;entryX=0;entryY=0.5;entryDx=0;entryDy=0;labelBackgroundColor=none;fontColor=default;endArrow=none;endFill=0;" edge="1" parent="1" source="38KEakOC2xByXQMo1wlP-46" target="38KEakOC2xByXQMo1wlP-73">
          <mxGeometry relative="1" as="geometry" />
        </mxCell>
        <mxCell id="38KEakOC2xByXQMo1wlP-44" style="edgeStyle=orthogonalEdgeStyle;rounded=0;orthogonalLoop=1;jettySize=auto;html=1;exitX=0;exitY=0.5;exitDx=0;exitDy=0;entryX=1;entryY=0.5;entryDx=0;entryDy=0;labelBackgroundColor=none;fontColor=default;endArrow=none;endFill=0;" edge="1" parent="1" source="38KEakOC2xByXQMo1wlP-46" target="38KEakOC2xByXQMo1wlP-41">
          <mxGeometry relative="1" as="geometry" />
        </mxCell>
        <mxCell id="38KEakOC2xByXQMo1wlP-45" style="edgeStyle=orthogonalEdgeStyle;rounded=0;orthogonalLoop=1;jettySize=auto;html=1;exitX=0.5;exitY=1;exitDx=0;exitDy=0;entryX=0.5;entryY=0;entryDx=0;entryDy=0;labelBackgroundColor=none;fontColor=default;startArrow=none;startFill=0;endArrow=none;endFill=0;" edge="1" parent="1" source="38KEakOC2xByXQMo1wlP-46" target="38KEakOC2xByXQMo1wlP-107">
          <mxGeometry relative="1" as="geometry" />
        </mxCell>
        <mxCell id="38KEakOC2xByXQMo1wlP-46" value="" style="ellipse;whiteSpace=wrap;html=1;aspect=fixed;labelBackgroundColor=none;rounded=0;" vertex="1" parent="1">
          <mxGeometry x="210" y="320" width="30" height="30" as="geometry" />
        </mxCell>
        <mxCell id="38KEakOC2xByXQMo1wlP-47" style="edgeStyle=orthogonalEdgeStyle;rounded=0;orthogonalLoop=1;jettySize=auto;html=1;exitX=1;exitY=0.5;exitDx=0;exitDy=0;entryX=0;entryY=0.5;entryDx=0;entryDy=0;labelBackgroundColor=none;fontColor=default;endArrow=none;endFill=0;" edge="1" parent="1" source="38KEakOC2xByXQMo1wlP-49" target="38KEakOC2xByXQMo1wlP-52">
          <mxGeometry relative="1" as="geometry" />
        </mxCell>
        <mxCell id="38KEakOC2xByXQMo1wlP-48" style="edgeStyle=orthogonalEdgeStyle;rounded=0;orthogonalLoop=1;jettySize=auto;html=1;exitX=0.5;exitY=1;exitDx=0;exitDy=0;entryX=0.5;entryY=0;entryDx=0;entryDy=0;labelBackgroundColor=none;fontColor=default;startArrow=none;startFill=0;endArrow=none;endFill=0;" edge="1" parent="1" source="38KEakOC2xByXQMo1wlP-49" target="38KEakOC2xByXQMo1wlP-55">
          <mxGeometry relative="1" as="geometry" />
        </mxCell>
        <mxCell id="38KEakOC2xByXQMo1wlP-49" value="" style="ellipse;whiteSpace=wrap;html=1;aspect=fixed;labelBackgroundColor=none;rounded=0;" vertex="1" parent="1">
          <mxGeometry x="250" y="200" width="30" height="30" as="geometry" />
        </mxCell>
        <mxCell id="38KEakOC2xByXQMo1wlP-50" style="edgeStyle=orthogonalEdgeStyle;rounded=0;orthogonalLoop=1;jettySize=auto;html=1;exitX=1;exitY=0.5;exitDx=0;exitDy=0;entryX=0;entryY=0.5;entryDx=0;entryDy=0;labelBackgroundColor=none;fontColor=default;endArrow=none;endFill=0;" edge="1" parent="1" source="38KEakOC2xByXQMo1wlP-52" target="38KEakOC2xByXQMo1wlP-60">
          <mxGeometry relative="1" as="geometry" />
        </mxCell>
        <mxCell id="38KEakOC2xByXQMo1wlP-51" style="edgeStyle=orthogonalEdgeStyle;rounded=0;orthogonalLoop=1;jettySize=auto;html=1;exitX=0.5;exitY=1;exitDx=0;exitDy=0;entryX=0.5;entryY=0;entryDx=0;entryDy=0;labelBackgroundColor=none;fontColor=default;startArrow=none;startFill=0;endArrow=none;endFill=0;" edge="1" parent="1" source="38KEakOC2xByXQMo1wlP-52" target="38KEakOC2xByXQMo1wlP-57">
          <mxGeometry relative="1" as="geometry" />
        </mxCell>
        <mxCell id="38KEakOC2xByXQMo1wlP-52" value="" style="ellipse;whiteSpace=wrap;html=1;aspect=fixed;labelBackgroundColor=none;rounded=0;" vertex="1" parent="1">
          <mxGeometry x="290" y="200" width="30" height="30" as="geometry" />
        </mxCell>
        <mxCell id="38KEakOC2xByXQMo1wlP-53" style="edgeStyle=orthogonalEdgeStyle;rounded=0;orthogonalLoop=1;jettySize=auto;html=1;exitX=1;exitY=0.5;exitDx=0;exitDy=0;entryX=0;entryY=0.5;entryDx=0;entryDy=0;labelBackgroundColor=none;fontColor=default;endArrow=none;endFill=0;" edge="1" parent="1" source="38KEakOC2xByXQMo1wlP-55" target="38KEakOC2xByXQMo1wlP-57">
          <mxGeometry relative="1" as="geometry" />
        </mxCell>
        <mxCell id="38KEakOC2xByXQMo1wlP-54" style="edgeStyle=orthogonalEdgeStyle;rounded=0;orthogonalLoop=1;jettySize=auto;html=1;exitX=0.5;exitY=1;exitDx=0;exitDy=0;entryX=0.5;entryY=0;entryDx=0;entryDy=0;labelBackgroundColor=none;fontColor=default;startArrow=none;startFill=0;endArrow=none;endFill=0;" edge="1" parent="1" source="38KEakOC2xByXQMo1wlP-55" target="38KEakOC2xByXQMo1wlP-68">
          <mxGeometry relative="1" as="geometry" />
        </mxCell>
        <mxCell id="38KEakOC2xByXQMo1wlP-55" value="" style="ellipse;whiteSpace=wrap;html=1;aspect=fixed;labelBackgroundColor=none;rounded=0;" vertex="1" parent="1">
          <mxGeometry x="250" y="240" width="30" height="30" as="geometry" />
        </mxCell>
        <mxCell id="38KEakOC2xByXQMo1wlP-56" style="edgeStyle=orthogonalEdgeStyle;rounded=0;orthogonalLoop=1;jettySize=auto;html=1;exitX=1;exitY=0.5;exitDx=0;exitDy=0;entryX=0;entryY=0.5;entryDx=0;entryDy=0;labelBackgroundColor=none;fontColor=default;endArrow=none;endFill=0;" edge="1" parent="1" source="38KEakOC2xByXQMo1wlP-57" target="38KEakOC2xByXQMo1wlP-64">
          <mxGeometry relative="1" as="geometry" />
        </mxCell>
        <mxCell id="38KEakOC2xByXQMo1wlP-57" value="" style="ellipse;whiteSpace=wrap;html=1;aspect=fixed;labelBackgroundColor=none;rounded=0;" vertex="1" parent="1">
          <mxGeometry x="290" y="240" width="30" height="30" as="geometry" />
        </mxCell>
        <mxCell id="38KEakOC2xByXQMo1wlP-58" style="edgeStyle=orthogonalEdgeStyle;rounded=0;orthogonalLoop=1;jettySize=auto;html=1;exitX=1;exitY=0.5;exitDx=0;exitDy=0;entryX=0;entryY=0.5;entryDx=0;entryDy=0;labelBackgroundColor=none;fontColor=default;endArrow=none;endFill=0;" edge="1" parent="1" source="38KEakOC2xByXQMo1wlP-60" target="38KEakOC2xByXQMo1wlP-62">
          <mxGeometry relative="1" as="geometry" />
        </mxCell>
        <mxCell id="38KEakOC2xByXQMo1wlP-59" style="edgeStyle=orthogonalEdgeStyle;rounded=0;orthogonalLoop=1;jettySize=auto;html=1;exitX=0.5;exitY=1;exitDx=0;exitDy=0;entryX=0.5;entryY=0;entryDx=0;entryDy=0;labelBackgroundColor=none;fontColor=default;startArrow=none;startFill=0;endArrow=none;endFill=0;" edge="1" parent="1" source="38KEakOC2xByXQMo1wlP-60" target="38KEakOC2xByXQMo1wlP-64">
          <mxGeometry relative="1" as="geometry" />
        </mxCell>
        <mxCell id="38KEakOC2xByXQMo1wlP-60" value="" style="ellipse;whiteSpace=wrap;html=1;aspect=fixed;labelBackgroundColor=none;rounded=0;" vertex="1" parent="1">
          <mxGeometry x="330" y="200" width="30" height="30" as="geometry" />
        </mxCell>
        <mxCell id="38KEakOC2xByXQMo1wlP-61" style="edgeStyle=orthogonalEdgeStyle;rounded=0;orthogonalLoop=1;jettySize=auto;html=1;exitX=0.5;exitY=1;exitDx=0;exitDy=0;entryX=0.5;entryY=0;entryDx=0;entryDy=0;labelBackgroundColor=none;fontColor=default;startArrow=none;startFill=0;endArrow=none;endFill=0;" edge="1" parent="1" source="38KEakOC2xByXQMo1wlP-62" target="38KEakOC2xByXQMo1wlP-66">
          <mxGeometry relative="1" as="geometry" />
        </mxCell>
        <mxCell id="38KEakOC2xByXQMo1wlP-62" value="" style="ellipse;whiteSpace=wrap;html=1;aspect=fixed;labelBackgroundColor=none;rounded=0;" vertex="1" parent="1">
          <mxGeometry x="370" y="200" width="30" height="30" as="geometry" />
        </mxCell>
        <mxCell id="38KEakOC2xByXQMo1wlP-63" style="edgeStyle=orthogonalEdgeStyle;rounded=0;orthogonalLoop=1;jettySize=auto;html=1;exitX=1;exitY=0.5;exitDx=0;exitDy=0;entryX=0;entryY=0.5;entryDx=0;entryDy=0;labelBackgroundColor=none;fontColor=default;endArrow=none;endFill=0;" edge="1" parent="1" source="38KEakOC2xByXQMo1wlP-64" target="38KEakOC2xByXQMo1wlP-66">
          <mxGeometry relative="1" as="geometry" />
        </mxCell>
        <mxCell id="38KEakOC2xByXQMo1wlP-64" value="" style="ellipse;whiteSpace=wrap;html=1;aspect=fixed;labelBackgroundColor=none;rounded=0;" vertex="1" parent="1">
          <mxGeometry x="330" y="240" width="30" height="30" as="geometry" />
        </mxCell>
        <mxCell id="38KEakOC2xByXQMo1wlP-65" style="edgeStyle=orthogonalEdgeStyle;rounded=0;orthogonalLoop=1;jettySize=auto;html=1;exitX=0.5;exitY=1;exitDx=0;exitDy=0;entryX=0.5;entryY=0;entryDx=0;entryDy=0;labelBackgroundColor=none;fontColor=default;startArrow=none;startFill=0;endArrow=none;endFill=0;" edge="1" parent="1" source="38KEakOC2xByXQMo1wlP-66" target="38KEakOC2xByXQMo1wlP-82">
          <mxGeometry relative="1" as="geometry" />
        </mxCell>
        <mxCell id="38KEakOC2xByXQMo1wlP-66" value="" style="ellipse;whiteSpace=wrap;html=1;aspect=fixed;labelBackgroundColor=none;rounded=0;" vertex="1" parent="1">
          <mxGeometry x="370" y="240" width="30" height="30" as="geometry" />
        </mxCell>
        <mxCell id="38KEakOC2xByXQMo1wlP-67" style="edgeStyle=orthogonalEdgeStyle;rounded=0;orthogonalLoop=1;jettySize=auto;html=1;exitX=1;exitY=0.5;exitDx=0;exitDy=0;entryX=0;entryY=0.5;entryDx=0;entryDy=0;labelBackgroundColor=none;fontColor=default;endArrow=none;endFill=0;" edge="1" parent="1" source="38KEakOC2xByXQMo1wlP-68" target="38KEakOC2xByXQMo1wlP-71">
          <mxGeometry relative="1" as="geometry" />
        </mxCell>
        <mxCell id="38KEakOC2xByXQMo1wlP-68" value="" style="ellipse;whiteSpace=wrap;html=1;aspect=fixed;labelBackgroundColor=none;rounded=0;" vertex="1" parent="1">
          <mxGeometry x="250" y="280" width="30" height="30" as="geometry" />
        </mxCell>
        <mxCell id="38KEakOC2xByXQMo1wlP-69" style="edgeStyle=orthogonalEdgeStyle;rounded=0;orthogonalLoop=1;jettySize=auto;html=1;exitX=0.5;exitY=0;exitDx=0;exitDy=0;entryX=0.5;entryY=1;entryDx=0;entryDy=0;labelBackgroundColor=none;fontColor=default;startArrow=none;startFill=0;endArrow=none;endFill=0;" edge="1" parent="1" source="38KEakOC2xByXQMo1wlP-71" target="38KEakOC2xByXQMo1wlP-57">
          <mxGeometry relative="1" as="geometry" />
        </mxCell>
        <mxCell id="38KEakOC2xByXQMo1wlP-70" style="edgeStyle=orthogonalEdgeStyle;rounded=0;orthogonalLoop=1;jettySize=auto;html=1;exitX=1;exitY=0.5;exitDx=0;exitDy=0;entryX=0;entryY=0.5;entryDx=0;entryDy=0;labelBackgroundColor=none;fontColor=default;endArrow=none;endFill=0;" edge="1" parent="1" source="38KEakOC2xByXQMo1wlP-71" target="38KEakOC2xByXQMo1wlP-80">
          <mxGeometry relative="1" as="geometry" />
        </mxCell>
        <mxCell id="38KEakOC2xByXQMo1wlP-71" value="" style="ellipse;whiteSpace=wrap;html=1;aspect=fixed;labelBackgroundColor=none;rounded=0;" vertex="1" parent="1">
          <mxGeometry x="290" y="280" width="30" height="30" as="geometry" />
        </mxCell>
        <mxCell id="38KEakOC2xByXQMo1wlP-72" style="edgeStyle=orthogonalEdgeStyle;rounded=0;orthogonalLoop=1;jettySize=auto;html=1;exitX=0.5;exitY=0;exitDx=0;exitDy=0;entryX=0.5;entryY=1;entryDx=0;entryDy=0;labelBackgroundColor=none;fontColor=default;startArrow=none;startFill=0;endArrow=none;endFill=0;" edge="1" parent="1" source="38KEakOC2xByXQMo1wlP-73" target="38KEakOC2xByXQMo1wlP-68">
          <mxGeometry relative="1" as="geometry" />
        </mxCell>
        <mxCell id="38KEakOC2xByXQMo1wlP-73" value="" style="ellipse;whiteSpace=wrap;html=1;aspect=fixed;labelBackgroundColor=none;rounded=0;" vertex="1" parent="1">
          <mxGeometry x="250" y="320" width="30" height="30" as="geometry" />
        </mxCell>
        <mxCell id="38KEakOC2xByXQMo1wlP-74" style="edgeStyle=orthogonalEdgeStyle;rounded=0;orthogonalLoop=1;jettySize=auto;html=1;exitX=0.5;exitY=0;exitDx=0;exitDy=0;entryX=0.5;entryY=1;entryDx=0;entryDy=0;labelBackgroundColor=none;fontColor=default;startArrow=none;startFill=0;endArrow=none;endFill=0;" edge="1" parent="1" source="38KEakOC2xByXQMo1wlP-77" target="38KEakOC2xByXQMo1wlP-71">
          <mxGeometry relative="1" as="geometry" />
        </mxCell>
        <mxCell id="38KEakOC2xByXQMo1wlP-75" style="edgeStyle=orthogonalEdgeStyle;rounded=0;orthogonalLoop=1;jettySize=auto;html=1;exitX=0;exitY=0.5;exitDx=0;exitDy=0;entryX=1;entryY=0.5;entryDx=0;entryDy=0;labelBackgroundColor=none;fontColor=default;endArrow=none;endFill=0;" edge="1" parent="1" source="38KEakOC2xByXQMo1wlP-77" target="38KEakOC2xByXQMo1wlP-73">
          <mxGeometry relative="1" as="geometry" />
        </mxCell>
        <mxCell id="38KEakOC2xByXQMo1wlP-76" style="edgeStyle=orthogonalEdgeStyle;rounded=0;orthogonalLoop=1;jettySize=auto;html=1;exitX=0.5;exitY=1;exitDx=0;exitDy=0;entryX=0.5;entryY=0;entryDx=0;entryDy=0;labelBackgroundColor=none;fontColor=default;startArrow=none;startFill=0;endArrow=none;endFill=0;" edge="1" parent="1" source="38KEakOC2xByXQMo1wlP-77" target="38KEakOC2xByXQMo1wlP-113">
          <mxGeometry relative="1" as="geometry" />
        </mxCell>
        <mxCell id="38KEakOC2xByXQMo1wlP-77" value="" style="ellipse;whiteSpace=wrap;html=1;aspect=fixed;labelBackgroundColor=none;rounded=0;" vertex="1" parent="1">
          <mxGeometry x="290" y="320" width="30" height="30" as="geometry" />
        </mxCell>
        <mxCell id="38KEakOC2xByXQMo1wlP-78" style="edgeStyle=orthogonalEdgeStyle;rounded=0;orthogonalLoop=1;jettySize=auto;html=1;exitX=0.5;exitY=0;exitDx=0;exitDy=0;entryX=0.5;entryY=1;entryDx=0;entryDy=0;labelBackgroundColor=none;fontColor=default;startArrow=none;startFill=0;endArrow=none;endFill=0;" edge="1" parent="1" source="38KEakOC2xByXQMo1wlP-80" target="38KEakOC2xByXQMo1wlP-64">
          <mxGeometry relative="1" as="geometry" />
        </mxCell>
        <mxCell id="38KEakOC2xByXQMo1wlP-79" style="edgeStyle=orthogonalEdgeStyle;rounded=0;orthogonalLoop=1;jettySize=auto;html=1;exitX=1;exitY=0.5;exitDx=0;exitDy=0;entryX=0;entryY=0.5;entryDx=0;entryDy=0;labelBackgroundColor=none;fontColor=default;endArrow=none;endFill=0;" edge="1" parent="1" source="38KEakOC2xByXQMo1wlP-80" target="38KEakOC2xByXQMo1wlP-82">
          <mxGeometry relative="1" as="geometry" />
        </mxCell>
        <mxCell id="38KEakOC2xByXQMo1wlP-80" value="E" style="ellipse;whiteSpace=wrap;html=1;aspect=fixed;labelBackgroundColor=none;rounded=0;" vertex="1" parent="1">
          <mxGeometry x="330" y="280" width="30" height="30" as="geometry" />
        </mxCell>
        <mxCell id="38KEakOC2xByXQMo1wlP-81" style="edgeStyle=orthogonalEdgeStyle;rounded=0;orthogonalLoop=1;jettySize=auto;html=1;exitX=0.5;exitY=1;exitDx=0;exitDy=0;entryX=0.5;entryY=0;entryDx=0;entryDy=0;labelBackgroundColor=none;fontColor=default;startArrow=none;startFill=0;endArrow=none;endFill=0;" edge="1" parent="1" source="38KEakOC2xByXQMo1wlP-82" target="38KEakOC2xByXQMo1wlP-87">
          <mxGeometry relative="1" as="geometry" />
        </mxCell>
        <mxCell id="38KEakOC2xByXQMo1wlP-82" value="" style="ellipse;whiteSpace=wrap;html=1;aspect=fixed;labelBackgroundColor=none;rounded=0;" vertex="1" parent="1">
          <mxGeometry x="370" y="280" width="30" height="30" as="geometry" />
        </mxCell>
        <mxCell id="38KEakOC2xByXQMo1wlP-83" style="edgeStyle=orthogonalEdgeStyle;rounded=0;orthogonalLoop=1;jettySize=auto;html=1;exitX=0.5;exitY=0;exitDx=0;exitDy=0;entryX=0.5;entryY=1;entryDx=0;entryDy=0;labelBackgroundColor=none;fontColor=default;startArrow=none;startFill=0;endArrow=none;endFill=0;" edge="1" parent="1" source="38KEakOC2xByXQMo1wlP-85" target="38KEakOC2xByXQMo1wlP-80">
          <mxGeometry relative="1" as="geometry" />
        </mxCell>
        <mxCell id="38KEakOC2xByXQMo1wlP-84" style="edgeStyle=orthogonalEdgeStyle;rounded=0;orthogonalLoop=1;jettySize=auto;html=1;exitX=0;exitY=0.5;exitDx=0;exitDy=0;entryX=1;entryY=0.5;entryDx=0;entryDy=0;labelBackgroundColor=none;fontColor=default;endArrow=none;endFill=0;" edge="1" parent="1" source="38KEakOC2xByXQMo1wlP-85" target="38KEakOC2xByXQMo1wlP-77">
          <mxGeometry relative="1" as="geometry" />
        </mxCell>
        <mxCell id="38KEakOC2xByXQMo1wlP-85" value="" style="ellipse;whiteSpace=wrap;html=1;aspect=fixed;labelBackgroundColor=none;rounded=0;" vertex="1" parent="1">
          <mxGeometry x="330" y="320" width="30" height="30" as="geometry" />
        </mxCell>
        <mxCell id="38KEakOC2xByXQMo1wlP-86" style="edgeStyle=orthogonalEdgeStyle;rounded=0;orthogonalLoop=1;jettySize=auto;html=1;exitX=0;exitY=0.5;exitDx=0;exitDy=0;entryX=1;entryY=0.5;entryDx=0;entryDy=0;endArrow=none;endFill=0;" edge="1" parent="1" source="38KEakOC2xByXQMo1wlP-87" target="38KEakOC2xByXQMo1wlP-85">
          <mxGeometry relative="1" as="geometry" />
        </mxCell>
        <mxCell id="38KEakOC2xByXQMo1wlP-87" value="" style="ellipse;whiteSpace=wrap;html=1;aspect=fixed;labelBackgroundColor=none;rounded=0;" vertex="1" parent="1">
          <mxGeometry x="370" y="320" width="30" height="30" as="geometry" />
        </mxCell>
        <mxCell id="38KEakOC2xByXQMo1wlP-88" style="edgeStyle=orthogonalEdgeStyle;rounded=0;orthogonalLoop=1;jettySize=auto;html=1;exitX=1;exitY=0.5;exitDx=0;exitDy=0;entryX=0;entryY=0.5;entryDx=0;entryDy=0;labelBackgroundColor=none;fontColor=default;startArrow=none;startFill=0;endArrow=none;endFill=0;" edge="1" parent="1" source="38KEakOC2xByXQMo1wlP-89" target="38KEakOC2xByXQMo1wlP-93">
          <mxGeometry relative="1" as="geometry" />
        </mxCell>
        <mxCell id="38KEakOC2xByXQMo1wlP-89" value="" style="ellipse;whiteSpace=wrap;html=1;aspect=fixed;labelBackgroundColor=none;rounded=0;" vertex="1" parent="1">
          <mxGeometry x="90" y="360" width="30" height="30" as="geometry" />
        </mxCell>
        <mxCell id="38KEakOC2xByXQMo1wlP-90" style="edgeStyle=orthogonalEdgeStyle;rounded=0;orthogonalLoop=1;jettySize=auto;html=1;exitX=0.5;exitY=0;exitDx=0;exitDy=0;entryX=0.5;entryY=1;entryDx=0;entryDy=0;labelBackgroundColor=none;fontColor=default;startArrow=none;startFill=0;endArrow=none;endFill=0;" edge="1" parent="1" source="38KEakOC2xByXQMo1wlP-93" target="38KEakOC2xByXQMo1wlP-33">
          <mxGeometry relative="1" as="geometry" />
        </mxCell>
        <mxCell id="38KEakOC2xByXQMo1wlP-91" style="edgeStyle=orthogonalEdgeStyle;rounded=0;orthogonalLoop=1;jettySize=auto;html=1;exitX=1;exitY=0.5;exitDx=0;exitDy=0;entryX=0;entryY=0.5;entryDx=0;entryDy=0;labelBackgroundColor=none;fontColor=default;endArrow=none;endFill=0;" edge="1" parent="1" source="38KEakOC2xByXQMo1wlP-93" target="38KEakOC2xByXQMo1wlP-100">
          <mxGeometry relative="1" as="geometry" />
        </mxCell>
        <mxCell id="38KEakOC2xByXQMo1wlP-92" style="edgeStyle=orthogonalEdgeStyle;rounded=0;orthogonalLoop=1;jettySize=auto;html=1;exitX=0.5;exitY=1;exitDx=0;exitDy=0;entryX=0.5;entryY=0;entryDx=0;entryDy=0;startArrow=none;startFill=0;endArrow=none;endFill=0;" edge="1" parent="1" source="38KEakOC2xByXQMo1wlP-93" target="38KEakOC2xByXQMo1wlP-98">
          <mxGeometry relative="1" as="geometry" />
        </mxCell>
        <mxCell id="38KEakOC2xByXQMo1wlP-93" value="S" style="ellipse;whiteSpace=wrap;html=1;aspect=fixed;labelBackgroundColor=none;rounded=0;" vertex="1" parent="1">
          <mxGeometry x="130" y="360" width="30" height="30" as="geometry" />
        </mxCell>
        <mxCell id="38KEakOC2xByXQMo1wlP-94" style="edgeStyle=orthogonalEdgeStyle;rounded=0;orthogonalLoop=1;jettySize=auto;html=1;exitX=0.5;exitY=0;exitDx=0;exitDy=0;entryX=0.5;entryY=1;entryDx=0;entryDy=0;startArrow=none;startFill=0;endArrow=none;endFill=0;" edge="1" parent="1" source="38KEakOC2xByXQMo1wlP-96" target="38KEakOC2xByXQMo1wlP-89">
          <mxGeometry relative="1" as="geometry" />
        </mxCell>
        <mxCell id="38KEakOC2xByXQMo1wlP-95" style="edgeStyle=orthogonalEdgeStyle;rounded=0;orthogonalLoop=1;jettySize=auto;html=1;exitX=1;exitY=0.5;exitDx=0;exitDy=0;entryX=0;entryY=0.5;entryDx=0;entryDy=0;startArrow=none;startFill=0;endArrow=none;endFill=0;" edge="1" parent="1" source="38KEakOC2xByXQMo1wlP-96" target="38KEakOC2xByXQMo1wlP-98">
          <mxGeometry relative="1" as="geometry" />
        </mxCell>
        <mxCell id="38KEakOC2xByXQMo1wlP-96" value="" style="ellipse;whiteSpace=wrap;html=1;aspect=fixed;labelBackgroundColor=none;rounded=0;" vertex="1" parent="1">
          <mxGeometry x="90" y="400" width="30" height="30" as="geometry" />
        </mxCell>
        <mxCell id="38KEakOC2xByXQMo1wlP-97" style="edgeStyle=orthogonalEdgeStyle;rounded=0;orthogonalLoop=1;jettySize=auto;html=1;exitX=1;exitY=0.5;exitDx=0;exitDy=0;entryX=0;entryY=0.5;entryDx=0;entryDy=0;endArrow=none;endFill=0;" edge="1" parent="1" source="38KEakOC2xByXQMo1wlP-98" target="38KEakOC2xByXQMo1wlP-103">
          <mxGeometry relative="1" as="geometry" />
        </mxCell>
        <mxCell id="38KEakOC2xByXQMo1wlP-98" value="" style="ellipse;whiteSpace=wrap;html=1;aspect=fixed;labelBackgroundColor=none;rounded=0;" vertex="1" parent="1">
          <mxGeometry x="130" y="400" width="30" height="30" as="geometry" />
        </mxCell>
        <mxCell id="38KEakOC2xByXQMo1wlP-99" style="edgeStyle=orthogonalEdgeStyle;rounded=0;orthogonalLoop=1;jettySize=auto;html=1;exitX=0.5;exitY=0;exitDx=0;exitDy=0;entryX=0.5;entryY=1;entryDx=0;entryDy=0;labelBackgroundColor=none;fontColor=default;startArrow=none;startFill=0;endArrow=none;endFill=0;" edge="1" parent="1" source="38KEakOC2xByXQMo1wlP-100" target="38KEakOC2xByXQMo1wlP-41">
          <mxGeometry relative="1" as="geometry" />
        </mxCell>
        <mxCell id="38KEakOC2xByXQMo1wlP-100" value="" style="ellipse;whiteSpace=wrap;html=1;aspect=fixed;labelBackgroundColor=none;rounded=0;" vertex="1" parent="1">
          <mxGeometry x="170" y="360" width="30" height="30" as="geometry" />
        </mxCell>
        <mxCell id="38KEakOC2xByXQMo1wlP-101" style="edgeStyle=orthogonalEdgeStyle;rounded=0;orthogonalLoop=1;jettySize=auto;html=1;exitX=0.5;exitY=0;exitDx=0;exitDy=0;entryX=0.5;entryY=1;entryDx=0;entryDy=0;startArrow=none;startFill=0;endArrow=none;endFill=0;" edge="1" parent="1" source="38KEakOC2xByXQMo1wlP-103" target="38KEakOC2xByXQMo1wlP-100">
          <mxGeometry relative="1" as="geometry" />
        </mxCell>
        <mxCell id="38KEakOC2xByXQMo1wlP-102" style="edgeStyle=orthogonalEdgeStyle;rounded=0;orthogonalLoop=1;jettySize=auto;html=1;exitX=1;exitY=0.5;exitDx=0;exitDy=0;entryX=0;entryY=0.5;entryDx=0;entryDy=0;endArrow=none;endFill=0;" edge="1" parent="1" source="38KEakOC2xByXQMo1wlP-103" target="38KEakOC2xByXQMo1wlP-108">
          <mxGeometry relative="1" as="geometry" />
        </mxCell>
        <mxCell id="38KEakOC2xByXQMo1wlP-103" value="" style="ellipse;whiteSpace=wrap;html=1;aspect=fixed;labelBackgroundColor=none;rounded=0;" vertex="1" parent="1">
          <mxGeometry x="170" y="400" width="30" height="30" as="geometry" />
        </mxCell>
        <mxCell id="38KEakOC2xByXQMo1wlP-104" style="edgeStyle=orthogonalEdgeStyle;rounded=0;orthogonalLoop=1;jettySize=auto;html=1;exitX=0;exitY=0.5;exitDx=0;exitDy=0;entryX=1;entryY=0.5;entryDx=0;entryDy=0;labelBackgroundColor=none;fontColor=default;endArrow=none;endFill=0;" edge="1" parent="1" source="38KEakOC2xByXQMo1wlP-107" target="38KEakOC2xByXQMo1wlP-100">
          <mxGeometry relative="1" as="geometry" />
        </mxCell>
        <mxCell id="38KEakOC2xByXQMo1wlP-105" style="edgeStyle=orthogonalEdgeStyle;rounded=0;orthogonalLoop=1;jettySize=auto;html=1;exitX=1;exitY=0.5;exitDx=0;exitDy=0;entryX=0;entryY=0.5;entryDx=0;entryDy=0;labelBackgroundColor=none;fontColor=default;endArrow=none;endFill=0;" edge="1" parent="1" source="38KEakOC2xByXQMo1wlP-107" target="38KEakOC2xByXQMo1wlP-110">
          <mxGeometry relative="1" as="geometry" />
        </mxCell>
        <mxCell id="38KEakOC2xByXQMo1wlP-106" style="edgeStyle=orthogonalEdgeStyle;rounded=0;orthogonalLoop=1;jettySize=auto;html=1;exitX=0.5;exitY=1;exitDx=0;exitDy=0;entryX=0.5;entryY=0;entryDx=0;entryDy=0;startArrow=none;startFill=0;endArrow=none;endFill=0;" edge="1" parent="1" source="38KEakOC2xByXQMo1wlP-107" target="38KEakOC2xByXQMo1wlP-108">
          <mxGeometry relative="1" as="geometry" />
        </mxCell>
        <mxCell id="38KEakOC2xByXQMo1wlP-107" value="F" style="ellipse;whiteSpace=wrap;html=1;aspect=fixed;labelBackgroundColor=none;rounded=0;" vertex="1" parent="1">
          <mxGeometry x="210" y="360" width="30" height="30" as="geometry" />
        </mxCell>
        <mxCell id="38KEakOC2xByXQMo1wlP-108" value="" style="ellipse;whiteSpace=wrap;html=1;aspect=fixed;labelBackgroundColor=none;rounded=0;" vertex="1" parent="1">
          <mxGeometry x="210" y="400" width="30" height="30" as="geometry" />
        </mxCell>
        <mxCell id="38KEakOC2xByXQMo1wlP-109" style="edgeStyle=orthogonalEdgeStyle;rounded=0;orthogonalLoop=1;jettySize=auto;html=1;exitX=0.5;exitY=0;exitDx=0;exitDy=0;entryX=0.5;entryY=1;entryDx=0;entryDy=0;labelBackgroundColor=none;fontColor=default;startArrow=none;startFill=0;endArrow=none;endFill=0;" edge="1" parent="1" source="38KEakOC2xByXQMo1wlP-110" target="38KEakOC2xByXQMo1wlP-73">
          <mxGeometry relative="1" as="geometry" />
        </mxCell>
        <mxCell id="38KEakOC2xByXQMo1wlP-110" value="F" style="ellipse;whiteSpace=wrap;html=1;aspect=fixed;labelBackgroundColor=none;rounded=0;" vertex="1" parent="1">
          <mxGeometry x="250" y="360" width="30" height="30" as="geometry" />
        </mxCell>
        <mxCell id="38KEakOC2xByXQMo1wlP-111" style="edgeStyle=orthogonalEdgeStyle;rounded=0;orthogonalLoop=1;jettySize=auto;html=1;exitX=0;exitY=0.5;exitDx=0;exitDy=0;entryX=1;entryY=0.5;entryDx=0;entryDy=0;labelBackgroundColor=none;fontColor=default;endArrow=none;endFill=0;" edge="1" parent="1" source="38KEakOC2xByXQMo1wlP-113" target="38KEakOC2xByXQMo1wlP-110">
          <mxGeometry relative="1" as="geometry" />
        </mxCell>
        <mxCell id="38KEakOC2xByXQMo1wlP-112" style="edgeStyle=orthogonalEdgeStyle;rounded=0;orthogonalLoop=1;jettySize=auto;html=1;exitX=1;exitY=0.5;exitDx=0;exitDy=0;entryX=0;entryY=0.5;entryDx=0;entryDy=0;labelBackgroundColor=none;fontColor=default;endArrow=none;endFill=0;" edge="1" parent="1" source="38KEakOC2xByXQMo1wlP-113" target="38KEakOC2xByXQMo1wlP-122">
          <mxGeometry relative="1" as="geometry" />
        </mxCell>
        <mxCell id="38KEakOC2xByXQMo1wlP-113" value="" style="ellipse;whiteSpace=wrap;html=1;aspect=fixed;labelBackgroundColor=none;rounded=0;" vertex="1" parent="1">
          <mxGeometry x="290" y="360" width="30" height="30" as="geometry" />
        </mxCell>
        <mxCell id="38KEakOC2xByXQMo1wlP-114" style="edgeStyle=orthogonalEdgeStyle;rounded=0;orthogonalLoop=1;jettySize=auto;html=1;exitX=0;exitY=0.5;exitDx=0;exitDy=0;entryX=1;entryY=0.5;entryDx=0;entryDy=0;endArrow=none;endFill=0;" edge="1" parent="1" source="38KEakOC2xByXQMo1wlP-116" target="38KEakOC2xByXQMo1wlP-108">
          <mxGeometry relative="1" as="geometry" />
        </mxCell>
        <mxCell id="38KEakOC2xByXQMo1wlP-115" style="edgeStyle=orthogonalEdgeStyle;rounded=0;orthogonalLoop=1;jettySize=auto;html=1;exitX=0.5;exitY=0;exitDx=0;exitDy=0;entryX=0.5;entryY=1;entryDx=0;entryDy=0;startArrow=none;startFill=0;endArrow=none;endFill=0;" edge="1" parent="1" source="38KEakOC2xByXQMo1wlP-116" target="38KEakOC2xByXQMo1wlP-110">
          <mxGeometry relative="1" as="geometry" />
        </mxCell>
        <mxCell id="38KEakOC2xByXQMo1wlP-116" value="F" style="ellipse;whiteSpace=wrap;html=1;aspect=fixed;labelBackgroundColor=none;rounded=0;" vertex="1" parent="1">
          <mxGeometry x="250" y="400" width="30" height="30" as="geometry" />
        </mxCell>
        <mxCell id="38KEakOC2xByXQMo1wlP-117" style="edgeStyle=orthogonalEdgeStyle;rounded=0;orthogonalLoop=1;jettySize=auto;html=1;exitX=0.5;exitY=0;exitDx=0;exitDy=0;entryX=0.5;entryY=1;entryDx=0;entryDy=0;endArrow=none;endFill=0;labelBackgroundColor=none;fontColor=default;startArrow=none;startFill=0;" edge="1" parent="1" source="38KEakOC2xByXQMo1wlP-119" target="38KEakOC2xByXQMo1wlP-113">
          <mxGeometry relative="1" as="geometry" />
        </mxCell>
        <mxCell id="38KEakOC2xByXQMo1wlP-118" style="edgeStyle=orthogonalEdgeStyle;rounded=0;orthogonalLoop=1;jettySize=auto;html=1;exitX=0;exitY=0.5;exitDx=0;exitDy=0;entryX=1;entryY=0.5;entryDx=0;entryDy=0;endArrow=none;endFill=0;" edge="1" parent="1" source="38KEakOC2xByXQMo1wlP-119" target="38KEakOC2xByXQMo1wlP-116">
          <mxGeometry relative="1" as="geometry" />
        </mxCell>
        <mxCell id="38KEakOC2xByXQMo1wlP-119" value="" style="ellipse;whiteSpace=wrap;html=1;aspect=fixed;labelBackgroundColor=none;rounded=0;" vertex="1" parent="1">
          <mxGeometry x="290" y="400" width="30" height="30" as="geometry" />
        </mxCell>
        <mxCell id="38KEakOC2xByXQMo1wlP-120" style="edgeStyle=orthogonalEdgeStyle;rounded=0;orthogonalLoop=1;jettySize=auto;html=1;exitX=0.5;exitY=0;exitDx=0;exitDy=0;entryX=0.5;entryY=1;entryDx=0;entryDy=0;labelBackgroundColor=none;fontColor=default;startArrow=none;startFill=0;endArrow=none;endFill=0;" edge="1" parent="1" source="38KEakOC2xByXQMo1wlP-122" target="38KEakOC2xByXQMo1wlP-85">
          <mxGeometry relative="1" as="geometry" />
        </mxCell>
        <mxCell id="38KEakOC2xByXQMo1wlP-121" style="edgeStyle=orthogonalEdgeStyle;rounded=0;orthogonalLoop=1;jettySize=auto;html=1;exitX=1;exitY=0.5;exitDx=0;exitDy=0;entryX=0;entryY=0.5;entryDx=0;entryDy=0;labelBackgroundColor=none;fontColor=default;endArrow=none;endFill=0;" edge="1" parent="1" source="38KEakOC2xByXQMo1wlP-122" target="38KEakOC2xByXQMo1wlP-125">
          <mxGeometry relative="1" as="geometry" />
        </mxCell>
        <mxCell id="38KEakOC2xByXQMo1wlP-122" value="" style="ellipse;whiteSpace=wrap;html=1;aspect=fixed;labelBackgroundColor=none;rounded=0;" vertex="1" parent="1">
          <mxGeometry x="330" y="360" width="30" height="30" as="geometry" />
        </mxCell>
        <mxCell id="38KEakOC2xByXQMo1wlP-123" style="edgeStyle=orthogonalEdgeStyle;rounded=0;orthogonalLoop=1;jettySize=auto;html=1;exitX=0.5;exitY=0;exitDx=0;exitDy=0;entryX=0.5;entryY=1;entryDx=0;entryDy=0;labelBackgroundColor=none;fontColor=default;startArrow=none;startFill=0;endArrow=none;endFill=0;" edge="1" parent="1" source="38KEakOC2xByXQMo1wlP-125" target="38KEakOC2xByXQMo1wlP-87">
          <mxGeometry relative="1" as="geometry" />
        </mxCell>
        <mxCell id="38KEakOC2xByXQMo1wlP-124" style="edgeStyle=orthogonalEdgeStyle;rounded=0;orthogonalLoop=1;jettySize=auto;html=1;exitX=0.5;exitY=1;exitDx=0;exitDy=0;entryX=0.5;entryY=0;entryDx=0;entryDy=0;labelBackgroundColor=none;fontColor=default;startArrow=none;startFill=0;endArrow=none;endFill=0;" edge="1" parent="1" source="38KEakOC2xByXQMo1wlP-125" target="38KEakOC2xByXQMo1wlP-130">
          <mxGeometry relative="1" as="geometry" />
        </mxCell>
        <mxCell id="38KEakOC2xByXQMo1wlP-125" value="" style="ellipse;whiteSpace=wrap;html=1;aspect=fixed;labelBackgroundColor=none;rounded=0;" vertex="1" parent="1">
          <mxGeometry x="370" y="360" width="30" height="30" as="geometry" />
        </mxCell>
        <mxCell id="38KEakOC2xByXQMo1wlP-126" style="edgeStyle=orthogonalEdgeStyle;rounded=0;orthogonalLoop=1;jettySize=auto;html=1;exitX=0.5;exitY=0;exitDx=0;exitDy=0;entryX=0.5;entryY=1;entryDx=0;entryDy=0;labelBackgroundColor=none;fontColor=default;startArrow=none;startFill=0;endArrow=none;endFill=0;" edge="1" parent="1" source="38KEakOC2xByXQMo1wlP-128" target="38KEakOC2xByXQMo1wlP-122">
          <mxGeometry relative="1" as="geometry" />
        </mxCell>
        <mxCell id="38KEakOC2xByXQMo1wlP-127" style="edgeStyle=orthogonalEdgeStyle;rounded=0;orthogonalLoop=1;jettySize=auto;html=1;exitX=0;exitY=0.5;exitDx=0;exitDy=0;entryX=1;entryY=0.5;entryDx=0;entryDy=0;labelBackgroundColor=none;fontColor=default;endArrow=none;endFill=0;" edge="1" parent="1" source="38KEakOC2xByXQMo1wlP-128" target="38KEakOC2xByXQMo1wlP-119">
          <mxGeometry relative="1" as="geometry" />
        </mxCell>
        <mxCell id="38KEakOC2xByXQMo1wlP-128" value="" style="ellipse;whiteSpace=wrap;html=1;aspect=fixed;labelBackgroundColor=none;rounded=0;" vertex="1" parent="1">
          <mxGeometry x="330" y="400" width="30" height="30" as="geometry" />
        </mxCell>
        <mxCell id="38KEakOC2xByXQMo1wlP-129" style="edgeStyle=orthogonalEdgeStyle;rounded=0;orthogonalLoop=1;jettySize=auto;html=1;exitX=0;exitY=0.5;exitDx=0;exitDy=0;entryX=1;entryY=0.5;entryDx=0;entryDy=0;labelBackgroundColor=none;fontColor=default;endArrow=none;endFill=0;" edge="1" parent="1" source="38KEakOC2xByXQMo1wlP-130" target="38KEakOC2xByXQMo1wlP-128">
          <mxGeometry relative="1" as="geometry" />
        </mxCell>
        <mxCell id="38KEakOC2xByXQMo1wlP-130" value="" style="ellipse;whiteSpace=wrap;html=1;aspect=fixed;labelBackgroundColor=none;rounded=0;" vertex="1" parent="1">
          <mxGeometry x="370" y="400" width="30" height="30" as="geometry" />
        </mxCell>
      </root>
    </mxGraphModel>
  </diagram>
</mxfile>
